# xmcd
#
# Track frame offsets:
#	150
#	22513
#	44273
#	65338
#	86548
#	108168
#	131078
#	153753
#	175358
#
# Disc length: 2704 seconds
#
# Revision: 7
# Processed by: cddbd v1.5.2PL0 Copyright (c) Steve Scherf et al.
# Submitted via: EasyCDDAExtractor 15.3.0.1
#
DISCID=620a8e09
DTITLE=India - Dicen Que Soy
DYEAR=1994
DGENRE=Latin
TTITLE0=Nunca Voy A Olvidarte
TTITLE1=Que Ganas De No Verte Nunca Mas
TTITLE2=Ese Hombre
TTITLE3=Dicen Que Soy
TTITLE4=O Ella O Yo
TTITLE5=Dejate Amar
TTITLE6=I Just Want To Hang Around You
TTITLE7=No Me Conviene
TTITLE8=Vivir Lo Nuestro (Bonus Track)
EXTD=YEAR: 1994
EXTT0=
EXTT1=
EXTT2=
EXTT3=
EXTT4=
EXTT5=
EXTT6=
EXTT7=
EXTT8=
PLAYORDER=
